<svg xmlns="http://www.w3.org/2000/svg" xmlns:xlink="http://www.w3.org/1999/xlink" width="500" zoomAndPan="magnify" viewBox="0 0 375 374.999991" height="500" preserveAspectRatio="xMidYMid meet" version="1.0"><defs><g/><clipPath id="889bcbcd77"><path d="M 23 177.425781 L 352.246094 177.425781 L 352.246094 291.871094 L 23 291.871094 Z M 23 177.425781 " clip-rule="nonzero"/></clipPath><clipPath id="1c2122055e"><rect x="0" width="293" y="0" height="142"/></clipPath></defs><rect x="-37.5" width="450" fill="#ffffff" y="-37.499999" height="449.999989" fill-opacity="1"/><rect x="-37.5" width="450" fill="#000000" y="-37.499999" height="449.999989" fill-opacity="1"/><g clip-path="url(#889bcbcd77)"><path fill="#fefefe" d="M 187.015625 291.796875 C 186.972656 291.785156 186.929688 291.773438 186.886719 291.757812 C 128.769531 274.351562 23 260.828125 23 260.828125 L 30.691406 234.078125 C 118.996094 241.984375 185.550781 285.144531 187.503906 286.421875 C 189.453125 285.144531 256.011719 241.984375 344.3125 234.078125 L 352.003906 260.828125 C 352.003906 260.828125 246.234375 274.351562 188.121094 291.757812 C 188.074219 291.773438 188.03125 291.785156 187.988281 291.796875 C 187.878906 291.867188 187.722656 291.898438 187.503906 291.882812 C 187.285156 291.898438 187.125 291.867188 187.015625 291.796875 Z M 187.457031 286.449219 C 187.457031 286.449219 189.433594 285.757812 187.515625 286.429688 L 187.546875 286.449219 L 187.503906 286.433594 Z M 330.589844 209.246094 L 321.339844 212.445312 L 327.027344 220.121094 C 327.027344 220.121094 243.105469 237.101562 195.226562 278.515625 C 195.226562 278.515625 260.410156 235.296875 340.460938 225.855469 Z M 44.414062 209.246094 L 53.667969 212.445312 L 47.980469 220.121094 C 47.980469 220.121094 131.902344 237.101562 179.777344 278.515625 C 179.777344 278.515625 114.597656 235.296875 34.546875 225.855469 Z M 199.019531 174.433594 C 199.019531 174.433594 227.976562 139.878906 281.480469 138.15625 L 328.671875 204.207031 C 328.671875 204.207031 227.027344 240.425781 194.140625 274.855469 C 194.140625 274.855469 233.117188 227.425781 314.929688 200.03125 L 277.433594 145.796875 C 277.433594 145.796875 240.144531 143.675781 199.019531 174.433594 Z M 175.988281 174.433594 C 175.988281 174.433594 147.03125 139.878906 93.527344 138.15625 L 46.335938 204.207031 C 46.335938 204.207031 147.980469 240.425781 180.867188 274.855469 C 180.867188 274.855469 141.890625 227.425781 60.078125 200.03125 L 97.574219 145.796875 C 97.574219 145.796875 134.863281 143.675781 175.988281 174.433594 Z M 175.988281 174.433594 " fill-opacity="1" fill-rule="evenodd"/></g><g transform="matrix(1, 0, 0, 1, 51, 81)"><g clip-path="url(#1c2122055e)"><g fill="#fefefe" fill-opacity="1"><g transform="translate(1.004975, 102.469251)"><g><path d="M 6.484375 -57.8125 C 6.484375 -61.414062 7.160156 -64.816406 8.515625 -68.015625 C 9.878906 -71.210938 11.757812 -73.988281 14.15625 -76.34375 C 16.550781 -78.707031 19.347656 -80.566406 22.546875 -81.921875 C 25.742188 -83.285156 29.144531 -83.96875 32.75 -83.96875 L 90.4375 -83.96875 L 90.4375 -65.140625 L 33.703125 -65.140625 C 31.941406 -65.140625 30.460938 -64.519531 29.265625 -63.28125 C 28.066406 -62.039062 27.46875 -60.539062 27.46875 -58.78125 C 27.46875 -57.019531 28.066406 -55.539062 29.265625 -54.34375 C 30.460938 -53.144531 31.941406 -52.546875 33.703125 -52.546875 L 64.171875 -52.546875 C 67.773438 -52.546875 71.175781 -51.863281 74.375 -50.5 C 77.570312 -49.144531 80.367188 -47.265625 82.765625 -44.859375 C 85.160156 -42.460938 87.035156 -39.664062 88.390625 -36.46875 C 89.753906 -33.269531 90.4375 -29.867188 90.4375 -26.265625 C 90.4375 -22.671875 89.753906 -19.273438 88.390625 -16.078125 C 87.035156 -12.878906 85.160156 -10.078125 82.765625 -7.671875 C 80.367188 -5.273438 77.570312 -3.394531 74.375 -2.03125 C 71.175781 -0.675781 67.773438 0 64.171875 0 L 12.953125 0 L 6.484375 -18.953125 L 63.21875 -18.953125 C 64.976562 -18.953125 66.457031 -19.570312 67.65625 -20.8125 C 68.851562 -22.050781 69.453125 -23.550781 69.453125 -25.3125 C 69.453125 -27.070312 68.851562 -28.550781 67.65625 -29.75 C 66.457031 -30.945312 64.976562 -31.546875 63.21875 -31.546875 L 32.75 -31.546875 C 29.144531 -31.546875 25.742188 -32.222656 22.546875 -33.578125 C 19.347656 -34.941406 16.550781 -36.820312 14.15625 -39.21875 C 11.757812 -41.625 9.878906 -44.425781 8.515625 -47.625 C 7.160156 -50.820312 6.484375 -54.21875 6.484375 -57.8125 Z M 6.484375 -57.8125 "/></g></g></g><g fill="#fefefe" fill-opacity="1"><g transform="translate(98.639641, 102.469251)"><g><path d="M 64.171875 -83.96875 L 85.171875 -83.96875 L 53.625 -29.875 L 53.625 0 L 32.75 0 L 32.75 -29.875 L 1.203125 -83.96875 L 22.1875 -83.96875 L 43.1875 -47.625 Z M 64.171875 -83.96875 "/></g></g></g><g fill="#fefefe" fill-opacity="1"><g transform="translate(184.999546, 102.469251)"><g><path d="M 56.734375 -83.96875 C 61.535156 -83.96875 66.535156 -83.425781 71.734375 -82.34375 C 76.929688 -81.269531 81.6875 -79.210938 86 -76.171875 C 90.320312 -73.128906 93.878906 -68.867188 96.671875 -63.390625 C 99.472656 -57.910156 100.875 -50.773438 100.875 -41.984375 C 100.875 -36.148438 100.234375 -31.050781 98.953125 -26.6875 C 97.679688 -22.332031 95.941406 -18.59375 93.734375 -15.46875 C 91.535156 -12.351562 88.957031 -9.816406 86 -7.859375 C 83.039062 -5.898438 79.921875 -4.335938 76.640625 -3.171875 C 73.367188 -2.015625 70.015625 -1.195312 66.578125 -0.71875 C 63.140625 -0.238281 59.820312 0 56.625 0 L 37.1875 0 L 30.46875 -14.875 L 30.46875 0 L 9.46875 0 L 9.46875 -83.96875 Z M 56.5 -18.953125 C 59.539062 -18.953125 62.335938 -19.269531 64.890625 -19.90625 C 67.453125 -20.550781 69.671875 -21.734375 71.546875 -23.453125 C 73.429688 -25.171875 74.890625 -27.53125 75.921875 -30.53125 C 76.960938 -33.53125 77.484375 -37.347656 77.484375 -41.984375 C 77.484375 -46.703125 76.960938 -50.539062 75.921875 -53.5 C 74.890625 -56.457031 73.429688 -58.816406 71.546875 -60.578125 C 69.671875 -62.335938 67.453125 -63.535156 64.890625 -64.171875 C 62.335938 -64.816406 59.539062 -65.140625 56.5 -65.140625 L 30.46875 -65.140625 L 30.46875 -18.953125 Z M 56.5 -18.953125 "/></g></g></g></g></g><g fill="#fefefe" fill-opacity="1"><g transform="translate(147.069868, 208.516743)"><g><path d="M 4.21875 0.09375 C 3.5625 0.09375 2.976562 -0.0195312 2.46875 -0.25 C 1.957031 -0.476562 1.550781 -0.796875 1.25 -1.203125 C 0.957031 -1.617188 0.8125 -2.09375 0.8125 -2.625 L 2.171875 -2.625 C 2.222656 -2.164062 2.414062 -1.773438 2.75 -1.453125 C 3.082031 -1.140625 3.570312 -0.984375 4.21875 -0.984375 C 4.832031 -0.984375 5.3125 -1.132812 5.65625 -1.4375 C 6.007812 -1.75 6.1875 -2.144531 6.1875 -2.625 C 6.1875 -3.007812 6.082031 -3.316406 5.875 -3.546875 C 5.675781 -3.785156 5.421875 -3.960938 5.109375 -4.078125 C 4.796875 -4.203125 4.375 -4.335938 3.84375 -4.484375 C 3.195312 -4.648438 2.675781 -4.816406 2.28125 -4.984375 C 1.894531 -5.160156 1.5625 -5.425781 1.28125 -5.78125 C 1 -6.144531 0.859375 -6.632812 0.859375 -7.25 C 0.859375 -7.789062 0.992188 -8.265625 1.265625 -8.671875 C 1.546875 -9.085938 1.929688 -9.410156 2.421875 -9.640625 C 2.921875 -9.867188 3.488281 -9.984375 4.125 -9.984375 C 5.050781 -9.984375 5.804688 -9.75 6.390625 -9.28125 C 6.984375 -8.820312 7.316406 -8.210938 7.390625 -7.453125 L 5.984375 -7.453125 C 5.929688 -7.828125 5.726562 -8.15625 5.375 -8.4375 C 5.03125 -8.726562 4.570312 -8.875 4 -8.875 C 3.46875 -8.875 3.03125 -8.734375 2.6875 -8.453125 C 2.34375 -8.179688 2.171875 -7.796875 2.171875 -7.296875 C 2.171875 -6.941406 2.269531 -6.648438 2.46875 -6.421875 C 2.675781 -6.191406 2.925781 -6.019531 3.21875 -5.90625 C 3.519531 -5.789062 3.941406 -5.65625 4.484375 -5.5 C 5.128906 -5.320312 5.648438 -5.144531 6.046875 -4.96875 C 6.441406 -4.789062 6.78125 -4.519531 7.0625 -4.15625 C 7.351562 -3.800781 7.5 -3.3125 7.5 -2.6875 C 7.5 -2.207031 7.367188 -1.753906 7.109375 -1.328125 C 6.859375 -0.898438 6.484375 -0.554688 5.984375 -0.296875 C 5.484375 -0.0351562 4.894531 0.09375 4.21875 0.09375 Z M 4.21875 0.09375 "/></g></g></g><g fill="#fefefe" fill-opacity="1"><g transform="translate(155.372716, 208.516743)"><g><path d="M 0.609375 -4.9375 C 0.609375 -5.894531 0.820312 -6.757812 1.25 -7.53125 C 1.6875 -8.300781 2.28125 -8.898438 3.03125 -9.328125 C 3.78125 -9.765625 4.613281 -9.984375 5.53125 -9.984375 C 6.601562 -9.984375 7.539062 -9.722656 8.34375 -9.203125 C 9.144531 -8.679688 9.726562 -7.945312 10.09375 -7 L 8.5625 -7 C 8.28125 -7.59375 7.882812 -8.050781 7.375 -8.375 C 6.863281 -8.695312 6.25 -8.859375 5.53125 -8.859375 C 4.84375 -8.859375 4.222656 -8.695312 3.671875 -8.375 C 3.128906 -8.050781 2.703125 -7.59375 2.390625 -7 C 2.078125 -6.414062 1.921875 -5.726562 1.921875 -4.9375 C 1.921875 -4.15625 2.078125 -3.46875 2.390625 -2.875 C 2.703125 -2.289062 3.128906 -1.835938 3.671875 -1.515625 C 4.222656 -1.191406 4.84375 -1.03125 5.53125 -1.03125 C 6.25 -1.03125 6.863281 -1.1875 7.375 -1.5 C 7.882812 -1.820312 8.28125 -2.28125 8.5625 -2.875 L 10.09375 -2.875 C 9.726562 -1.925781 9.144531 -1.195312 8.34375 -0.6875 C 7.539062 -0.175781 6.601562 0.078125 5.53125 0.078125 C 4.613281 0.078125 3.78125 -0.132812 3.03125 -0.5625 C 2.28125 -0.988281 1.6875 -1.582031 1.25 -2.34375 C 0.820312 -3.113281 0.609375 -3.976562 0.609375 -4.9375 Z M 0.609375 -4.9375 "/></g></g></g><g fill="#fefefe" fill-opacity="1"><g transform="translate(166.292302, 208.516743)"><g><path d="M 6.28125 0 L 3.9375 -4.03125 L 2.375 -4.03125 L 2.375 0 L 1.09375 0 L 1.09375 -9.859375 L 4.265625 -9.859375 C 5.015625 -9.859375 5.644531 -9.726562 6.15625 -9.46875 C 6.664062 -9.21875 7.046875 -8.875 7.296875 -8.4375 C 7.554688 -8.007812 7.6875 -7.515625 7.6875 -6.953125 C 7.6875 -6.273438 7.488281 -5.675781 7.09375 -5.15625 C 6.707031 -4.644531 6.125 -4.300781 5.34375 -4.125 L 7.8125 0 Z M 2.375 -5.0625 L 4.265625 -5.0625 C 4.960938 -5.0625 5.484375 -5.234375 5.828125 -5.578125 C 6.179688 -5.921875 6.359375 -6.378906 6.359375 -6.953125 C 6.359375 -7.535156 6.1875 -7.988281 5.84375 -8.3125 C 5.5 -8.632812 4.972656 -8.796875 4.265625 -8.796875 L 2.375 -8.796875 Z M 2.375 -5.0625 "/></g></g></g><g fill="#fefefe" fill-opacity="1"><g transform="translate(174.892181, 208.516743)"><g><path d="M 2.375 -9.859375 L 2.375 0 L 1.09375 0 L 1.09375 -9.859375 Z M 2.375 -9.859375 "/></g></g></g><g fill="#fefefe" fill-opacity="1"><g transform="translate(178.371734, 208.516743)"><g><path d="M 7.671875 -6.96875 C 7.671875 -6.144531 7.390625 -5.460938 6.828125 -4.921875 C 6.273438 -4.378906 5.421875 -4.109375 4.265625 -4.109375 L 2.375 -4.109375 L 2.375 0 L 1.09375 0 L 1.09375 -9.859375 L 4.265625 -9.859375 C 5.378906 -9.859375 6.222656 -9.585938 6.796875 -9.046875 C 7.378906 -8.515625 7.671875 -7.820312 7.671875 -6.96875 Z M 4.265625 -5.171875 C 4.984375 -5.171875 5.507812 -5.328125 5.84375 -5.640625 C 6.1875 -5.953125 6.359375 -6.394531 6.359375 -6.96875 C 6.359375 -8.1875 5.660156 -8.796875 4.265625 -8.796875 L 2.375 -8.796875 L 2.375 -5.171875 Z M 4.265625 -5.171875 "/></g></g></g><g fill="#fefefe" fill-opacity="1"><g transform="translate(186.561423, 208.516743)"><g><path d="M 7.15625 -9.859375 L 7.15625 -8.8125 L 4.46875 -8.8125 L 4.46875 0 L 3.1875 0 L 3.1875 -8.8125 L 0.484375 -8.8125 L 0.484375 -9.859375 Z M 7.15625 -9.859375 "/></g></g></g><g fill="#fefefe" fill-opacity="1"><g transform="translate(194.213618, 208.516743)"><g><path d="M 2.34375 -9.859375 L 2.34375 -3.625 C 2.34375 -2.75 2.554688 -2.097656 2.984375 -1.671875 C 3.421875 -1.242188 4.019531 -1.03125 4.78125 -1.03125 C 5.53125 -1.03125 6.117188 -1.242188 6.546875 -1.671875 C 6.984375 -2.097656 7.203125 -2.75 7.203125 -3.625 L 7.203125 -9.859375 L 8.484375 -9.859375 L 8.484375 -3.640625 C 8.484375 -2.816406 8.316406 -2.125 7.984375 -1.5625 C 7.660156 -1 7.21875 -0.582031 6.65625 -0.3125 C 6.09375 -0.0390625 5.460938 0.09375 4.765625 0.09375 C 4.066406 0.09375 3.4375 -0.0390625 2.875 -0.3125 C 2.3125 -0.582031 1.867188 -1 1.546875 -1.5625 C 1.222656 -2.125 1.0625 -2.816406 1.0625 -3.640625 L 1.0625 -9.859375 Z M 2.34375 -9.859375 "/></g></g></g><g fill="#fefefe" fill-opacity="1"><g transform="translate(203.761183, 208.516743)"><g><path d="M 6.28125 0 L 3.9375 -4.03125 L 2.375 -4.03125 L 2.375 0 L 1.09375 0 L 1.09375 -9.859375 L 4.265625 -9.859375 C 5.015625 -9.859375 5.644531 -9.726562 6.15625 -9.46875 C 6.664062 -9.21875 7.046875 -8.875 7.296875 -8.4375 C 7.554688 -8.007812 7.6875 -7.515625 7.6875 -6.953125 C 7.6875 -6.273438 7.488281 -5.675781 7.09375 -5.15625 C 6.707031 -4.644531 6.125 -4.300781 5.34375 -4.125 L 7.8125 0 Z M 2.375 -5.0625 L 4.265625 -5.0625 C 4.960938 -5.0625 5.484375 -5.234375 5.828125 -5.578125 C 6.179688 -5.921875 6.359375 -6.378906 6.359375 -6.953125 C 6.359375 -7.535156 6.1875 -7.988281 5.84375 -8.3125 C 5.5 -8.632812 4.972656 -8.796875 4.265625 -8.796875 L 2.375 -8.796875 Z M 2.375 -5.0625 "/></g></g></g><g fill="#fefefe" fill-opacity="1"><g transform="translate(212.361062, 208.516743)"><g><path d="M 2.375 -8.8125 L 2.375 -5.515625 L 5.96875 -5.515625 L 5.96875 -4.453125 L 2.375 -4.453125 L 2.375 -1.0625 L 6.390625 -1.0625 L 6.390625 0 L 1.09375 0 L 1.09375 -9.875 L 6.390625 -9.875 L 6.390625 -8.8125 Z M 2.375 -8.8125 "/></g></g></g><g fill="#fefefe" fill-opacity="1"><g transform="translate(219.617211, 208.516743)"><g><path d="M 4.21875 0.09375 C 3.5625 0.09375 2.976562 -0.0195312 2.46875 -0.25 C 1.957031 -0.476562 1.550781 -0.796875 1.25 -1.203125 C 0.957031 -1.617188 0.8125 -2.09375 0.8125 -2.625 L 2.171875 -2.625 C 2.222656 -2.164062 2.414062 -1.773438 2.75 -1.453125 C 3.082031 -1.140625 3.570312 -0.984375 4.21875 -0.984375 C 4.832031 -0.984375 5.3125 -1.132812 5.65625 -1.4375 C 6.007812 -1.75 6.1875 -2.144531 6.1875 -2.625 C 6.1875 -3.007812 6.082031 -3.316406 5.875 -3.546875 C 5.675781 -3.785156 5.421875 -3.960938 5.109375 -4.078125 C 4.796875 -4.203125 4.375 -4.335938 3.84375 -4.484375 C 3.195312 -4.648438 2.675781 -4.816406 2.28125 -4.984375 C 1.894531 -5.160156 1.5625 -5.425781 1.28125 -5.78125 C 1 -6.144531 0.859375 -6.632812 0.859375 -7.25 C 0.859375 -7.789062 0.992188 -8.265625 1.265625 -8.671875 C 1.546875 -9.085938 1.929688 -9.410156 2.421875 -9.640625 C 2.921875 -9.867188 3.488281 -9.984375 4.125 -9.984375 C 5.050781 -9.984375 5.804688 -9.75 6.390625 -9.28125 C 6.984375 -8.820312 7.316406 -8.210938 7.390625 -7.453125 L 5.984375 -7.453125 C 5.929688 -7.828125 5.726562 -8.15625 5.375 -8.4375 C 5.03125 -8.726562 4.570312 -8.875 4 -8.875 C 3.46875 -8.875 3.03125 -8.734375 2.6875 -8.453125 C 2.34375 -8.179688 2.171875 -7.796875 2.171875 -7.296875 C 2.171875 -6.941406 2.269531 -6.648438 2.46875 -6.421875 C 2.675781 -6.191406 2.925781 -6.019531 3.21875 -5.90625 C 3.519531 -5.789062 3.941406 -5.65625 4.484375 -5.5 C 5.128906 -5.320312 5.648438 -5.144531 6.046875 -4.96875 C 6.441406 -4.789062 6.78125 -4.519531 7.0625 -4.15625 C 7.351562 -3.800781 7.5 -3.3125 7.5 -2.6875 C 7.5 -2.207031 7.367188 -1.753906 7.109375 -1.328125 C 6.859375 -0.898438 6.484375 -0.554688 5.984375 -0.296875 C 5.484375 -0.0351562 4.894531 0.09375 4.21875 0.09375 Z M 4.21875 0.09375 "/></g></g></g><g fill="#fefefe" fill-opacity="1"><g transform="translate(134.2144, 228.016742)"><g><path d="M 7.984375 -9.859375 L 4.78125 -3.71875 L 4.78125 0 L 3.5 0 L 3.5 -3.71875 L 0.265625 -9.859375 L 1.703125 -9.859375 L 4.125 -4.859375 L 6.5625 -9.859375 Z M 7.984375 -9.859375 "/></g></g></g><g fill="#fefefe" fill-opacity="1"><g transform="translate(142.474814, 228.016742)"><g><path d="M 6.921875 -2.1875 L 2.609375 -2.1875 L 1.828125 0 L 0.46875 0 L 4.03125 -9.796875 L 5.515625 -9.796875 L 9.0625 0 L 7.703125 0 Z M 6.546875 -3.234375 L 4.765625 -8.21875 L 2.984375 -3.234375 Z M 6.546875 -3.234375 "/></g></g></g><g fill="#fefefe" fill-opacity="1"><g transform="translate(152.008233, 228.016742)"><g><path d="M 8.6875 -9.859375 L 8.6875 0 L 7.390625 0 L 7.390625 -4.46875 L 2.375 -4.46875 L 2.375 0 L 1.09375 0 L 1.09375 -9.859375 L 2.375 -9.859375 L 2.375 -5.53125 L 7.390625 -5.53125 L 7.390625 -9.859375 Z M 8.6875 -9.859375 "/></g></g></g><g fill="#fefefe" fill-opacity="1"><g transform="translate(161.79625, 228.016742)"><g><path d="M 2.34375 -9.859375 L 2.34375 -3.625 C 2.34375 -2.75 2.554688 -2.097656 2.984375 -1.671875 C 3.421875 -1.242188 4.019531 -1.03125 4.78125 -1.03125 C 5.53125 -1.03125 6.117188 -1.242188 6.546875 -1.671875 C 6.984375 -2.097656 7.203125 -2.75 7.203125 -3.625 L 7.203125 -9.859375 L 8.484375 -9.859375 L 8.484375 -3.640625 C 8.484375 -2.816406 8.316406 -2.125 7.984375 -1.5625 C 7.660156 -1 7.21875 -0.582031 6.65625 -0.3125 C 6.09375 -0.0390625 5.460938 0.09375 4.765625 0.09375 C 4.066406 0.09375 3.4375 -0.0390625 2.875 -0.3125 C 2.3125 -0.582031 1.867188 -1 1.546875 -1.5625 C 1.222656 -2.125 1.0625 -2.816406 1.0625 -3.640625 L 1.0625 -9.859375 Z M 2.34375 -9.859375 "/></g></g></g><g fill="#fefefe" fill-opacity="1"><g transform="translate(171.343815, 228.016742)"><g><path d="M 6.921875 -2.1875 L 2.609375 -2.1875 L 1.828125 0 L 0.46875 0 L 4.03125 -9.796875 L 5.515625 -9.796875 L 9.0625 0 L 7.703125 0 Z M 6.546875 -3.234375 L 4.765625 -8.21875 L 2.984375 -3.234375 Z M 6.546875 -3.234375 "/></g></g></g><g fill="#fefefe" fill-opacity="1"><g transform="translate(180.877235, 228.016742)"><g><path d="M 8.6875 -9.859375 L 8.6875 0 L 7.390625 0 L 7.390625 -4.46875 L 2.375 -4.46875 L 2.375 0 L 1.09375 0 L 1.09375 -9.859375 L 2.375 -9.859375 L 2.375 -5.53125 L 7.390625 -5.53125 L 7.390625 -9.859375 Z M 8.6875 -9.859375 "/></g></g></g><g fill="#fefefe" fill-opacity="1"><g transform="translate(190.665251, 228.016742)"><g/></g></g><g fill="#fefefe" fill-opacity="1"><g transform="translate(194.441847, 228.016742)"><g><path d="M 4.15625 -9.859375 C 5.226562 -9.859375 6.15625 -9.65625 6.9375 -9.25 C 7.726562 -8.851562 8.332031 -8.28125 8.75 -7.53125 C 9.175781 -6.789062 9.390625 -5.914062 9.390625 -4.90625 C 9.390625 -3.894531 9.175781 -3.019531 8.75 -2.28125 C 8.332031 -1.539062 7.726562 -0.972656 6.9375 -0.578125 C 6.15625 -0.191406 5.226562 0 4.15625 0 L 1.09375 0 L 1.09375 -9.859375 Z M 4.15625 -1.0625 C 5.425781 -1.0625 6.394531 -1.394531 7.0625 -2.0625 C 7.738281 -2.738281 8.078125 -3.6875 8.078125 -4.90625 C 8.078125 -6.132812 7.738281 -7.09375 7.0625 -7.78125 C 6.382812 -8.46875 5.414062 -8.8125 4.15625 -8.8125 L 2.375 -8.8125 L 2.375 -1.0625 Z M 4.15625 -1.0625 "/></g></g></g><g fill="#fefefe" fill-opacity="1"><g transform="translate(204.442037, 228.016742)"><g><path d="M 6.921875 -2.1875 L 2.609375 -2.1875 L 1.828125 0 L 0.46875 0 L 4.03125 -9.796875 L 5.515625 -9.796875 L 9.0625 0 L 7.703125 0 Z M 6.546875 -3.234375 L 4.765625 -8.21875 L 2.984375 -3.234375 Z M 6.546875 -3.234375 "/></g></g></g><g fill="#fefefe" fill-opacity="1"><g transform="translate(213.975457, 228.016742)"><g><path d="M 6.03125 -5.078125 C 6.382812 -5.015625 6.707031 -4.863281 7 -4.625 C 7.300781 -4.394531 7.535156 -4.101562 7.703125 -3.75 C 7.878906 -3.40625 7.96875 -3.035156 7.96875 -2.640625 C 7.96875 -2.140625 7.84375 -1.6875 7.59375 -1.28125 C 7.34375 -0.882812 6.972656 -0.570312 6.484375 -0.34375 C 5.992188 -0.113281 5.421875 0 4.765625 0 L 1.09375 0 L 1.09375 -9.859375 L 4.625 -9.859375 C 5.289062 -9.859375 5.859375 -9.742188 6.328125 -9.515625 C 6.804688 -9.296875 7.160156 -9 7.390625 -8.625 C 7.628906 -8.25 7.75 -7.828125 7.75 -7.359375 C 7.75 -6.765625 7.585938 -6.273438 7.265625 -5.890625 C 6.953125 -5.515625 6.539062 -5.242188 6.03125 -5.078125 Z M 2.375 -5.59375 L 4.546875 -5.59375 C 5.140625 -5.59375 5.601562 -5.734375 5.9375 -6.015625 C 6.269531 -6.304688 6.4375 -6.703125 6.4375 -7.203125 C 6.4375 -7.703125 6.269531 -8.09375 5.9375 -8.375 C 5.601562 -8.65625 5.128906 -8.796875 4.515625 -8.796875 L 2.375 -8.796875 Z M 4.65625 -1.0625 C 5.289062 -1.0625 5.785156 -1.210938 6.140625 -1.515625 C 6.503906 -1.816406 6.6875 -2.234375 6.6875 -2.765625 C 6.6875 -3.316406 6.5 -3.75 6.125 -4.0625 C 5.75 -4.382812 5.242188 -4.546875 4.609375 -4.546875 L 2.375 -4.546875 L 2.375 -1.0625 Z M 4.65625 -1.0625 "/></g></g></g><g fill="#fefefe" fill-opacity="1"><g transform="translate(222.646061, 228.016742)"><g><path d="M 6.921875 -2.1875 L 2.609375 -2.1875 L 1.828125 0 L 0.46875 0 L 4.03125 -9.796875 L 5.515625 -9.796875 L 9.0625 0 L 7.703125 0 Z M 6.546875 -3.234375 L 4.765625 -8.21875 L 2.984375 -3.234375 Z M 6.546875 -3.234375 "/></g></g></g><g fill="#fefefe" fill-opacity="1"><g transform="translate(232.179481, 228.016742)"><g><path d="M 6.28125 0 L 3.9375 -4.03125 L 2.375 -4.03125 L 2.375 0 L 1.09375 0 L 1.09375 -9.859375 L 4.265625 -9.859375 C 5.015625 -9.859375 5.644531 -9.726562 6.15625 -9.46875 C 6.664062 -9.21875 7.046875 -8.875 7.296875 -8.4375 C 7.554688 -8.007812 7.6875 -7.515625 7.6875 -6.953125 C 7.6875 -6.273438 7.488281 -5.675781 7.09375 -5.15625 C 6.707031 -4.644531 6.125 -4.300781 5.34375 -4.125 L 7.8125 0 Z M 2.375 -5.0625 L 4.265625 -5.0625 C 4.960938 -5.0625 5.484375 -5.234375 5.828125 -5.578125 C 6.179688 -5.921875 6.359375 -6.378906 6.359375 -6.953125 C 6.359375 -7.535156 6.1875 -7.988281 5.84375 -8.3125 C 5.5 -8.632812 4.972656 -8.796875 4.265625 -8.796875 L 2.375 -8.796875 Z M 2.375 -5.0625 "/></g></g></g></svg>